<?xml version="1.0" standalone="no"?>
<!DOCTYPE svg PUBLIC "-//W3C//DTD SVG 20010904//EN"
 "http://www.w3.org/TR/2001/REC-SVG-20010904/DTD/svg10.dtd">
<svg version="1.0" xmlns="http://www.w3.org/2000/svg"
 width="334.000000pt" height="334.000000pt" viewBox="0 0 334.000000 334.000000"
 preserveAspectRatio="xMidYMid meet">

<g transform="translate(0.000000,334.000000) scale(0.100000,-0.100000)"
fill="#000000" stroke="none">
<path d="M1770 2692 c-42 -42 -60 -70 -68 -103 -13 -52 -9 -72 38 -179 27 -62
31 -81 26 -123 -5 -49 -46 -127 -66 -127 -5 0 -17 15 -26 33 -9 17 -30 48 -45
67 -16 19 -29 40 -29 47 0 7 -4 13 -10 13 -19 0 -33 -45 -38 -126 -8 -143 26
-258 104 -344 40 -44 54 -44 54 0 0 19 17 51 50 94 55 72 74 108 91 176 l11
45 22 -40 c17 -33 21 -57 21 -137 0 -61 4 -97 10 -95 18 5 55 90 55 126 0 54
16 26 35 -61 10 -47 14 -90 10 -110 l-7 -33 32 30 c46 44 97 125 125 200 21
56 25 83 25 180 0 121 -19 197 -60 247 l-19 23 -1 -43 c0 -51 -19 -100 -49
-127 -19 -16 -24 -17 -31 -5 -6 8 -10 23 -10 33 0 30 -26 70 -80 122 -102 98
-129 159 -104 230 17 49 17 45 2 45 -7 0 -37 -26 -68 -58z"/>
<path d="M1295 1771 l-60 -6 0 -210 0 -210 542 -3 542 -2 30 27 c18 18 37 53
50 93 43 135 90 305 85 310 -8 7 -1117 9 -1189 1z"/>
<path d="M866 1714 c-16 -5 -18 -13 -13 -69 6 -85 39 -149 94 -189 59 -42 97
-54 166 -55 l57 -1 0 155 0 155 -38 0 c-22 0 -86 2 -143 5 -57 2 -112 2 -123
-1z"/>
<path d="M1635 1223 c-9 -64 -38 -137 -80 -207 -19 -32 -35 -60 -35 -62 0 -2
153 -4 340 -4 187 0 340 2 340 4 0 2 -16 30 -35 62 -39 65 -75 154 -75 187 0
12 -3 32 -6 45 -6 22 -7 22 -224 22 l-218 0 -7 -47z"/>
<path d="M1485 894 c-55 -2 -110 -6 -122 -9 -28 -7 -45 -55 -29 -86 l12 -24
512 -3 511 -2 17 25 c20 31 12 70 -17 86 -22 11 -668 21 -884 13z"/>
</g>
</svg>
